<mxfile host="app.diagrams.net" agent="Mozilla/5.0 (Windows NT 10.0; Win64; x64) AppleWebKit/537.36 (KHTML, like Gecko) Chrome/127.0.0.0 Safari/537.36" version="24.7.6">
  <diagram name="Page-1" id="74e2e168-ea6b-b213-b513-2b3c1d86103e">
    <mxGraphModel dx="658" dy="408" grid="1" gridSize="10" guides="1" tooltips="1" connect="1" arrows="1" fold="1" page="1" pageScale="1" pageWidth="1100" pageHeight="850" background="none" math="0" shadow="0">
      <root>
        <mxCell id="0" />
        <mxCell id="1" parent="0" />
        <mxCell id="ALu0SoZ39AE1pr8Nul9C-1" value="" style="swimlane;childLayout=stackLayout;resizeParent=1;resizeParentMax=0;startSize=20;html=1;" vertex="1" parent="1">
          <mxGeometry x="370" y="120" width="360" height="430" as="geometry" />
        </mxCell>
        <mxCell id="ALu0SoZ39AE1pr8Nul9C-2" value="Lane 1" style="swimlane;startSize=20;html=1;" vertex="1" parent="ALu0SoZ39AE1pr8Nul9C-1">
          <mxGeometry y="20" width="180" height="410" as="geometry" />
        </mxCell>
        <mxCell id="ALu0SoZ39AE1pr8Nul9C-3" value="Lane 2" style="swimlane;startSize=20;html=1;" vertex="1" parent="ALu0SoZ39AE1pr8Nul9C-1">
          <mxGeometry x="180" y="20" width="180" height="410" as="geometry" />
        </mxCell>
      </root>
    </mxGraphModel>
  </diagram>
</mxfile>
